<svg id="_x33_0" enable-background="new 0 0 64 64" viewBox="0 0 64 64" xmlns="http://www.w3.org/2000/svg"><g><path d="m53 16c0 1.654 1.346 3 3 3s3-1.346 3-3-1.346-3-3-3-3 1.346-3 3zm4 0c0 .551-.449 1-1 1s-1-.449-1-1 .449-1 1-1 1 .449 1 1z"/><path d="m52 59c1.654 0 3-1.346 3-3s-1.346-3-3-3-3 1.346-3 3 1.346 3 3 3zm0-4c.551 0 1 .449 1 1s-.449 1-1 1-1-.449-1-1 .449-1 1-1z"/><path d="m27 56c0 1.654 1.346 3 3 3s3-1.346 3-3-1.346-3-3-3-3 1.346-3 3zm4 0c0 .551-.449 1-1 1s-1-.449-1-1 .449-1 1-1 1 .449 1 1z"/>
<path d="m35 53h12v2h-12z"/>
<path d="m35 57h12v2h-12z"/>
<path d="m61 33h-1.153l-.847-5.083v-5.602c2.361-1.126 4-3.53 4-6.315 0-3.816-3.071-6.924-6.871-6.993l-35.894-6.98-.913-1.319-3.796 1.961c-1.222-1.039-2.801-1.669-4.526-1.669-3.86 0-7 3.14-7 7 0 2.785 1.639 5.189 4 6.315v10.685c-1.103 0-2 .897-2 2v3c0 2.414 1.721 4.434 4 4.899v2.101h-4.423c-1.402 0-2.603.95-2.919 2.31-.619 2.65-1.658 7.433-1.658 9.69 0 5.514 4.486 10 10 10s10-4.486 10-10c0-2.257-1.039-7.04-1.657-9.69-.317-1.36-1.518-2.31-2.92-2.31h-4.423v-2.101c2.279-.465 4-2.484 4-4.899v-3c0-1.103-.897-2-2-2v-10.685c1.398-.667 2.54-1.78 3.24-3.159l5.933 18.54 5.539 2.89-.706 11.293c-.004.061-.006.121-.006.182 0 1.62 1.319 2.939 2.939 2.939h.28l.5 2h-1.719c-3.86 0-7 3.14-7 7s3.14 7 7 7h22c3.86 0 7-3.14 7-7s-3.14-7-7-7h-1.719l.5-2h10.219c1.103 0 2-.897 2-2v-10c0-1.103-.897-2-2-2zm-43.605 6.765c1.02 4.367 1.605 7.733 1.605 9.235 0 4.411-3.589 8-8 8s-8-3.589-8-8c0-1.502.585-4.868 1.605-9.236.105-.45.505-.764.972-.764h10.846c.467 0 .867.314.972.765zm19.605-6.765h4v8h-4zm-2 8h-4.81l.5-8h4.31zm-6.12-10.582-1.422-.742 4.679-6.944 2.954 4.268h-2.273c-1.993 0-3.651 1.479-3.938 3.418zm-5.012-19.63-3.852-1.678 1.998-.999zm1.075 2.651-3.696 3.677-1.966-6.143zm1.606 1.222 3.393 4.901-7.076-1.238zm10.975 12.339-12.459-17.996 24.319 4.729c-.245.712-.384 1.473-.384 2.267 0 1.215.312 2.359.859 3.356l-10.192 7.644zm13.536-6.045c.22.219.459.418.706.607l-5.167 9.301c-.667-1.741-2.118-3.093-3.923-3.619zm1.94 2.504v4.458l-.847 5.083h-4.453zm1.847 5.541h2.306l.667 4h-3.64zm2.153-2h-2v-4.08c.328.047.66.08 1 .08s.672-.033 1-.08zm4-11c0 2.757-2.243 5-5 5s-5-2.243-5-5 2.243-5 5-5 5 2.243 5 5zm-8.976-5.755c-.646.448-1.21 1.003-1.673 1.638l-26.916-5.233-1.571-2.269zm-31.16-3.795-2.612 1.306-.454-1.419-.005.002c-.187-.765-.498-1.481-.914-2.125l1.8-.921zm-14.864 1.55c0-2.757 2.243-5 5-5 .799 0 1.544.206 2.215.541l-2.633.878c-1.544.514-2.582 1.953-2.582 3.581s1.038 3.067 2.581 3.581l2.634.878c-.671.335-1.416.541-2.215.541-2.757 0-5-2.243-5-5zm8 22c0 1.654-1.346 3-3 3s-3-1.346-3-3v-3h6zm-2-5h-2v-10.08c.328.047.66.08 1 .08s.672-.033 1-.08zm3.015-14.049-3.802-1.267c-.725-.242-1.213-.919-1.213-1.684s.488-1.442 1.214-1.684l3.801-1.267c.611.829.985 1.844.985 2.951s-.374 2.122-.985 2.951zm7.234 9.296 8.186 1.432-4.761 7.067-.847-.442zm7.753 23.755.063-1.002h10.935c1.103 0 2-.897 2-2v-8c0-1.103-.897-2-2-2h-10.185l.008-.125c.065-1.051.942-1.875 1.995-1.875h8.182c2.206 0 4 1.794 4 4v1 1 10h-14.061c-.518 0-.939-.421-.937-.998zm26.998 11.998c0 2.757-2.243 5-5 5h-22c-2.757 0-5-2.243-5-5s2.243-5 5-5h22c2.757 0 5 2.243 5 5zm-8.781-7h-14.438l-.5-2h15.438zm12.781-4h-14v-10h14z"/>
<path d="m55 39h2v2h-2z"/>
<path d="m51 39h2v2h-2z"/>
<path d="m17 49c0-.258-.023-.627-.079-1.113l-1.987.227c.045.386.066.681.066.886 0 2.206-1.794 4-4 4v2c3.309 0 6-2.691 6-6z"/>
<path d="m16.616 45.829c-.201-1.16-.475-2.521-.813-4.045l-1.952.433c.331 1.494.598 2.825.794 3.955z"/>
<circle cx="13" cy="8" r="1"/>
</g>
</svg>
